<svg xmlns="http://www.w3.org/2000/svg" enable-background="new 0 0 512 512" viewBox="0 0 512 512" id="tutorials"><path fill="#fff" d="M453.689,111.321v215.982H58.249V111.321c0-15.191,12.315-27.506,27.506-27.506h340.429
			C441.374,83.815,453.689,96.13,453.689,111.321z"></path><polygon fill="#94c1ff" points="453.689 327.303 503.883 387.235 8.055 387.235 58.249 327.303"></polygon><path fill="#d7e9ff" d="M503.918,387.202L503.918,387.202c0,22.634-18.349,40.983-40.983,40.983H49.065
			c-22.634,0-40.983-18.349-40.983-40.983v0H503.918z"></path><polygon fill="#d7e9ff" points="282.445 186.603 229.492 221.44 229.492 151.767"></polygon><path fill="#116fff" d="M509.5,381.493l-47.813-57.095V111.321c0-19.581-15.929-35.506-35.506-35.506H85.756
				c-19.577,0-35.506,15.925-35.506,35.506v213.077L1.924,382.106c-1.179,1.407-1.839,3.413-1.839,5.092
				c0,27.008,21.974,48.986,48.983,48.986h413.866c27.008,0,48.983-21.978,48.983-48.986
				C511.916,385.638,510.799,382.75,509.5,381.493z M25.216,379.2l36.766-43.902h387.975l36.766,43.902H25.216z M66.246,111.321
				c0-10.755,8.751-19.51,19.51-19.51h340.425c10.759,0,19.51,8.755,19.51,19.51v207.982H66.246V111.321z M462.933,420.189H49.067
				c-15.419,0-28.394-10.635-31.994-24.954h477.853C491.328,409.554,478.352,420.189,462.933,420.189z"></path><path fill="#116fff" d="M233.891 228.117l52.95-34.834c4.797-3.153 4.796-10.203 0-13.356l-52.95-34.842c-5.314-3.475-12.395.306-12.395 6.678v69.676C221.496 227.772 228.547 231.628 233.891 228.117zM237.491 166.603l30.402 20.002-30.402 20.002V166.603zM416.407 275.729H152.285v-6.584c0-4.421-3.581-7.998-7.998-7.998s-7.998 3.577-7.998 7.998v6.584H95.531c-4.417 0-7.998 3.577-7.998 7.998s3.581 7.998 7.998 7.998h40.758v6.584c0 4.421 3.581 7.998 7.998 7.998s7.998-3.577 7.998-7.998v-6.584h264.122c4.417 0 7.998-3.577 7.998-7.998S420.824 275.729 416.407 275.729z"></path></svg>